<?xml version="1.0" encoding="UTF-8"?>
<svg id="Capa_2" data-name="Capa 2" xmlns="http://www.w3.org/2000/svg" viewBox="0 0 88.59 110.61">
  <defs>
    <style>
      .cls-1 {
        fill: #b9cc3a;
      }

      .cls-1, .cls-2 {
        stroke-width: 0px;
      }

      .cls-2 {
        fill: #bd4893;
      }
    </style>
  </defs>
  <g id="Capa_1-2" data-name="Capa 1">
    <g>
      <g>
        <path class="cls-1" d="m2.58,7.12C24.47,4.86,46.3,2.51,68.34,2.5c6.23,0,12.47.1,18.7.21,1.61.03,1.61-2.47,0-2.5-10.99-.18-21.98-.37-32.96.03s-21.98,1.37-32.93,2.47c-6.19.62-12.37,1.27-18.56,1.91-1.58.16-1.6,2.67,0,2.5h0Z"/>
        <path class="cls-1" d="m85.38,2.83c.36,13.09.37,26.19.5,39.28s.38,26.28.08,39.42c-.17,7.44-.54,14.87-1.23,22.28-.15,1.6,2.35,1.59,2.5,0,1.23-13.18,1.42-26.42,1.35-39.65-.06-13.11-.24-26.21-.37-39.32-.07-7.34-.13-14.67-.33-22.01-.04-1.61-2.54-1.61-2.5,0h0Z"/>
        <path class="cls-1" d="m1.38,7.03c-2.44,25.01-1.07,50.21-.29,75.26.19,6.25.39,12.51.58,18.76.05,1.48.09,2.96.14,4.44.04,1.21-.2,2.83.65,3.82.72.84,1.97.88,2.98.98,1.6.16,3.21.15,4.81.06,3.07-.18,6.11-.7,9.16-1.09s6.1-.56,9.17-.57c6.05-.03,12.09.45,18.14.12,13.18-.71,26.34-6.39,39.6-3.61,1.57.33,2.24-2.08.66-2.41-11.37-2.38-22.61,1.19-33.8,2.86-5.92.88-11.85.82-17.82.66-5.95-.16-11.81-.11-17.72.7-3.01.41-6.02.88-9.07.92-.72.01-1.44,0-2.16-.04-.36-.02-1.66.06-1.91-.2-.33-.35-.17-1.72-.18-2.17-.03-.82-.05-1.65-.08-2.47-.19-6.09-.38-12.18-.57-18.27-.38-12.21-.83-24.42-1.05-36.63-.24-13.71-.07-27.45,1.26-41.11.16-1.6-2.35-1.59-2.5,0h0Z"/>
        <path class="cls-1" d="m7.69,14.04c-2.09,21.84,1.42,43.67.94,65.52-.12,5.52-.55,11.01-1.29,16.48-.26,1.94-.33,4.08,1.23,5.52s3.93,1.25,5.9,1.16c11.18-.53,22.36-1.26,33.52-2.16,5.58-.45,11.16-.95,16.73-1.5,2.63-.26,5.27-.46,7.88-.82,1.84-.25,3.79-.7,5.21-1.98,1.71-1.53,1.84-3.73,1.66-5.87-.23-2.78-.49-5.56-.74-8.34-.5-5.61-1.3-11.31-1.18-16.95s1.75-10.58,2.05-15.95-.15-11.01-.42-16.49-.54-11.2-.8-16.8c-.11-2.35.19-5.2-1.73-6.93-1.65-1.48-4.18-1.99-6.32-2.17-4.96-.42-9.83,1.43-14.55,2.67-5.23,1.37-10.58,1.78-15.97,1.76s-10.8-.42-16.2-.56c-4.43-.11-9.06-.09-13.28,1.44-2,.73-3.81,1.77-5.41,3.19-1.21,1.07.57,2.83,1.77,1.77,3.17-2.81,7.47-3.66,11.59-3.87,4.79-.25,9.61.14,14.39.34,5.05.21,10.13.35,15.18-.14s9.62-1.89,14.44-3.12c2.29-.59,4.62-1.06,6.99-1.02,1.81.03,5.45.34,6.23,2.35.41,1.07.28,2.43.33,3.56.07,1.4.13,2.8.2,4.2.13,2.63.25,5.27.38,7.9.25,5.22.57,10.45.72,15.68.07,2.56.07,5.12-.15,7.68s-.74,5.05-1.18,7.57c-.91,5.14-.81,10.13-.35,15.31s.92,10.46,1.38,15.69c.18,2.09.72,4.58-1.49,5.76-1.78.95-4.03.97-5.99,1.17-5.32.55-10.65,1.05-15.98,1.51-10.5.91-21.01,1.65-31.53,2.23-2.63.15-5.26.28-7.89.4-2.03.09-4.32.2-4.31-2.42.01-2.33.58-4.72.81-7.04.25-2.54.42-5.09.54-7.63.9-20.5-2.23-40.95-1.36-61.45.11-2.56.28-5.11.53-7.66.15-1.6-2.35-1.59-2.5,0h0Z"/>
        <path class="cls-1" d="m14.4,20.11c-.39,19.05-.06,38.11,1.01,57.14.31,5.46.67,10.91,1.09,16.37.04.52.36,1.09.92,1.21,2.91.61,5.63-.18,8.33-1.25s5.53-2.11,8.48-2.7c5.9-1.18,11.98-1.03,17.96-.79s11.7.9,17.4.19c1.03-.13,2.09-.46,2.71-1.36.73-1.05.48-2.26.3-3.43-.47-3.03-.69-6.09-.75-9.16-.24-12.07,2.02-24,2.53-36.03.25-5.99.05-12.02-1.09-17.92-.21-1.11-.4-2.29-1.26-3.11-.91-.87-2.18-.99-3.38-.92-3.23.19-6.46.58-9.7.79-14.61.95-29.28.79-43.86-.43-1.6-.13-1.59,2.37,0,2.5,12.21,1.02,24.48,1.3,36.72.81,3.04-.12,6.08-.29,9.11-.51,1.48-.11,2.95-.22,4.43-.35.74-.06,1.47-.13,2.21-.2.65-.06,1.54-.26,2.2-.1,1.1.28,1.08,1.93,1.24,2.87.26,1.45.46,2.91.61,4.37.29,2.85.39,5.72.36,8.58-.1,11.3-2.11,22.47-2.56,33.75-.11,2.8-.12,5.61.02,8.4.07,1.36.17,2.72.32,4.07.07.64.15,1.27.24,1.91.09.69.38,1.51.32,2.19-.1,1.12-1.82.87-2.7.91-1.51.06-3.01.08-4.52.06-2.73-.02-5.45-.15-8.18-.27-6.25-.28-12.52-.55-18.73.32-3.08.43-6.11,1.17-9.01,2.31s-5.93,2.75-9.09,2.09l.92,1.21c-1.47-19-2.23-38.05-2.26-57.1,0-5.47.05-10.94.16-16.4.03-1.61-2.47-1.61-2.5,0h0Z"/>
        <path class="cls-1" d="m70.53,20.85c6.12-5.47,11.38-11.88,15.57-18.94.82-1.39-1.34-2.65-2.16-1.26-4.09,6.89-9.2,13.1-15.18,18.44-1.2,1.07.57,2.84,1.77,1.77h0Z"/>
        <path class="cls-1" d="m2.08,7.53c4.23,4.65,8.29,9.46,12.16,14.42.42.53,1.33.44,1.77,0,.53-.53.42-1.23,0-1.77-3.87-4.95-7.93-9.76-12.16-14.42-1.08-1.19-2.85.58-1.77,1.77h0Z"/>
        <path class="cls-1" d="m3.29,109.71l.04.1v-1.26l-.05.1.45-.45.07-.03.96.13-.12-.05.45.45c.02.36.05.43.09.21.03-.11.06-.23.1-.34.06-.19.12-.37.18-.56.13-.38.27-.75.44-1.11.35-.77.76-1.52,1.22-2.23.89-1.39,1.99-2.64,3.17-3.79,2.5-2.41,5.41-4.32,8.39-6.07,1.39-.81.13-2.97-1.26-2.16-3.98,2.33-7.95,5.01-10.89,8.62-1.47,1.79-2.66,3.77-3.44,5.96-.35,1-.87,2.47.29,3.17.51.31,1.12.27,1.61-.05.7-.46.76-1.19.45-1.91-.26-.62-1.18-.76-1.71-.45-.64.38-.71,1.09-.45,1.71h0Z"/>
        <path class="cls-1" d="m69.88,89.04c5.42,4.46,10.02,9.81,13.59,15.85.82,1.38,2.98.13,2.16-1.26-3.68-6.21-8.41-11.77-13.98-16.35-.52-.43-1.25-.5-1.77,0-.45.44-.52,1.34,0,1.77h0Z"/>
        <path class="cls-1" d="m19.01,94.75c0,1.63,0,3.25,0,4.88,0,.65.57,1.28,1.25,1.25s1.25-.55,1.25-1.25c0-1.63,0-3.25,0-4.88,0-.65-.57-1.28-1.25-1.25s-1.25.55-1.25,1.25h0Z"/>
        <path class="cls-1" d="m24.12,91.77c.29,2.5.57,4.99.86,7.49.07.65.52,1.28,1.25,1.25.61-.03,1.33-.55,1.25-1.25-.29-2.5-.57-4.99-.86-7.49-.07-.65-.52-1.28-1.25-1.25-.61.03-1.33.55-1.25,1.25h0Z"/>
        <path class="cls-1" d="m29.85,92.13c0,2.5.32,5.01.93,7.43.16.63.91,1.08,1.54.87s1.04-.86.87-1.54c-.14-.58-.27-1.16-.38-1.75-.05-.27-.1-.54-.14-.82-.02-.14-.04-.27-.06-.41-.02-.16-.03-.18-.01-.08,0-.07-.02-.14-.03-.21-.14-1.16-.21-2.34-.22-3.51,0-.65-.57-1.28-1.25-1.25s-1.25.55-1.25,1.25h0Z"/>
        <path class="cls-1" d="m35.89,90.63v7.88c0,.65.57,1.28,1.25,1.25s1.25-.55,1.25-1.25v-7.88c0-.65-.57-1.28-1.25-1.25s-1.25.55-1.25,1.25h0Z"/>
        <path class="cls-1" d="m41.08,91.36c.64,2.62,1.27,5.25,1.91,7.87.15.64.91,1.08,1.54.87.66-.21,1.04-.86.87-1.54-.64-2.62-1.27-5.25-1.91-7.87-.15-.64-.91-1.08-1.54-.87-.66.21-1.04.86-.87,1.54h0Z"/>
        <path class="cls-1" d="m50.14,89.13c0,2.88,0,5.75,0,8.63,0,.68.57,1.25,1.25,1.25s1.25-.57,1.25-1.25c0-2.88,0-5.75,0-8.63,0-.68-.57-1.25-1.25-1.25s-1.25.57-1.25,1.25h0Z"/>
        <path class="cls-1" d="m55.31,88.76c.14,2.63.27,5.25.41,7.88.03.65.55,1.28,1.25,1.25.65-.03,1.29-.55,1.25-1.25-.14-2.63-.27-5.25-.41-7.88-.03-.65-.55-1.28-1.25-1.25-.65.03-1.29.55-1.25,1.25h0Z"/>
        <path class="cls-1" d="m62.3,90.69c-.49,2.61-.38,5.3.4,7.85.19.62.88,1.08,1.54.87s1.08-.87.87-1.54c-.17-.55-.31-1.1-.41-1.67-.03-.17-.06-.35-.09-.52-.04-.26,0,.09-.02-.19s-.06-.57-.07-.86c-.03-.57-.03-1.14,0-1.72.02-.29.04-.57.08-.86s-.02.06.03-.19c.03-.17.06-.35.09-.52.12-.64-.18-1.38-.87-1.54-.61-.14-1.41.19-1.54.87h0Z"/>
        <path class="cls-1" d="m68.52,90.63c-.08,1.97.62,3.87,1.86,5.39.19.23.6.37.88.37.31,0,.67-.14.88-.37s.38-.55.37-.88c-.02-.35-.15-.61-.37-.88-.03-.04-.06-.08-.09-.12l.1.13c-.04-.06-.09-.12-.13-.18-.09-.12-.17-.25-.24-.38-.07-.12-.14-.24-.2-.36-.03-.07-.07-.13-.1-.2-.02-.04-.12-.29-.04-.09s0-.01-.02-.06c-.03-.07-.05-.14-.08-.21-.05-.14-.09-.28-.13-.43-.08-.29-.14-.58-.18-.88l.04.33c-.05-.4-.07-.79-.05-1.19.03-.65-.6-1.28-1.25-1.25-.7.03-1.22.55-1.25,1.25h0Z"/>
        <path class="cls-1" d="m73.1,85.46l1.5-.38c.16-.04.3-.11.43-.22.14-.09.24-.21.32-.35.09-.14.14-.3.15-.46.04-.17.03-.33-.02-.5-.1-.3-.29-.59-.57-.75s-.63-.21-.96-.13l-1.5.38c-.16.04-.3.11-.43.22-.14.09-.24.21-.32.35-.09.14-.14.3-.15.46-.04.17-.03.33.02.5.1.3.29.59.57.75s.63.21.96.13h0Z"/>
        <path class="cls-1" d="m72.71,79.78c1.38-.49,2.76-.98,4.14-1.47.31-.11.58-.28.75-.57.16-.27.22-.66.13-.96-.2-.61-.88-1.11-1.54-.87-1.38.49-2.76.98-4.14,1.47-.31.11-.58.28-.75.57-.16.27-.22.66-.13.96.2.61.88,1.11,1.54.87h0Z"/>
        <path class="cls-1" d="m70.82,71.09c1.14-.32,2.28-.65,3.42-.97.63-.18,1.08-.89.87-1.54s-.86-1.06-1.54-.87c-1.14.32-2.28.65-3.42.97-.63.18-1.08.89-.87,1.54s.86,1.06,1.54.87h0Z"/>
        <path class="cls-1" d="m72.73,63.32l2.63-.37c.29-.04.61-.34.75-.57.16-.27.22-.66.13-.96s-.29-.59-.57-.75l-.3-.13c-.22-.06-.44-.06-.66,0l-2.63.37c-.29.04-.61.34-.75.57-.16.27-.22.66-.13.96s.29.59.57.75l.3.13c.22.06.44.06.66,0h0Z"/>
        <path class="cls-1" d="m74.2,54.61l2.66-1.04c.31-.12.57-.27.75-.57.16-.27.22-.66.13-.96s-.29-.59-.57-.75-.66-.25-.96-.13l-2.66,1.04c-.31.12-.57.27-.75.57-.16.27-.22.66-.13.96s.29.59.57.75.66.25.96.13h0Z"/>
        <path class="cls-1" d="m74.14,48.56c.24-.18.49-.32.76-.44l-.3.13c.3-.12.6-.21.92-.26l-.33.04c.19-.03.38-.04.57-.03.32,0,.66-.14.88-.37s.38-.57.37-.88-.12-.66-.37-.88-.54-.36-.88-.37c-.31,0-.6.03-.91.08-.21.03-.42.08-.62.14-.48.16-.96.38-1.37.68-.15.08-.26.19-.35.32-.11.12-.19.26-.22.43-.08.3-.05.7.13.96s.43.5.75.57.7.07.96-.13h0Z"/>
        <path class="cls-1" d="m74.58,41.51l2.66-1.03c.31-.12.57-.27.75-.57.16-.27.22-.66.13-.96s-.29-.59-.57-.75-.65-.25-.96-.13l-2.66,1.03c-.31.12-.57.27-.75.57-.16.27-.22.66-.13.96s.29.59.57.75.65.25.96.13h0Z"/>
        <path class="cls-1" d="m74.97,32.54c.87-.25,1.75-.5,2.62-.75.3-.09.59-.3.75-.57s.22-.66.13-.96-.29-.59-.57-.75-.63-.22-.96-.13c-.87.25-1.75.5-2.62.75-.3.09-.59.3-.75.57s-.22.66-.13.96.29.59.57.75.63.22.96.13h0Z"/>
        <path class="cls-1" d="m73.86,28.1c.87-.25,1.75-.51,2.62-.76.3-.09.59-.3.75-.57s.22-.66.13-.96-.29-.59-.57-.75-.63-.22-.96-.13c-.87.25-1.75.51-2.62.76-.3.09-.59.3-.75.57s-.22.66-.13.96.29.59.57.75.63.22.96.13h0Z"/>
        <path class="cls-1" d="m73.4,22.69l2.25-1.13c.27-.13.5-.46.57-.75.08-.3.05-.7-.13-.96s-.43-.5-.75-.57c-.34-.08-.65-.03-.96.13l-2.25,1.13c-.27.13-.5.46-.57.75-.08.3-.05.7.13.96s.43.5.75.57c.34.08.65.03.96-.13h0Z"/>
        <path class="cls-1" d="m64.85,9.29c-.65,2.55-.95,5.2-.85,7.82.02.65.56,1.28,1.25,1.25.66-.03,1.28-.55,1.25-1.25-.1-2.52.14-4.76.76-7.16.16-.63-.21-1.39-.87-1.54s-1.36.2-1.54.87h0Z"/>
        <path class="cls-1" d="m58.94,10.85c-1.03,2.32-1.52,4.84-1.29,7.38.06.65.53,1.28,1.25,1.25.63-.03,1.31-.55,1.25-1.25-.05-.56-.07-1.13-.05-1.7,0-.28.03-.57.05-.85.01-.12.03-.24.04-.36-.03.25.03-.16.03-.21.09-.54.21-1.07.37-1.6.08-.27.17-.54.27-.81.04-.11.09-.23.13-.34.06-.14.06-.15.01-.04.03-.07.06-.15.1-.22.27-.6.19-1.37-.45-1.71-.54-.29-1.43-.19-1.71.45h0Z"/>
        <path class="cls-1" d="m51.92,12.6c-.11,1.75-.23,3.5-.34,5.25-.04.65.61,1.28,1.25,1.25.71-.03,1.2-.55,1.25-1.25.11-1.75.23-3.5.34-5.25.04-.65-.61-1.28-1.25-1.25-.71.03-1.2.55-1.25,1.25h0Z"/>
        <path class="cls-1" d="m49.02,15.08c.7-.46.95-1.39.32-2.04-.37-.38-.94-.48-1.43-.35-.55.14-.96.52-1.14,1.05-.13.36-.18.77-.24,1.15-.27,1.74-.22,3.48.18,5.2.15.64.91,1.08,1.54.87.66-.22,1.03-.86.87-1.54-.06-.26-.12-.52-.16-.79-.01-.06-.08-.45-.03-.15-.02-.14-.03-.29-.05-.43-.04-.5-.06-1-.04-1.5,0-.25.03-.5.05-.75,0-.07.02-.14.02-.21-.02.15-.02.16,0,.01.02-.11.03-.21.05-.32.04-.25.12-.49.16-.74.08-.26,0-.15-.22.33-.11.11-.24.19-.38.23.13-.03.06-.02-.2.02.32.01.07-.1-.75-.33l-.37-.88v.02c.06-.21.12-.42.17-.63l.38-.38c-.55.36-.83,1.12-.45,1.71.35.54,1.13.83,1.71.45h0Z"/>
        <path class="cls-1" d="m38.43,12.6l-.37,6.38c-.04.65.6,1.28,1.25,1.25.71-.03,1.21-.55,1.25-1.25l.37-6.38c.04-.65-.6-1.28-1.25-1.25-.71.03-1.21.55-1.25,1.25h0Z"/>
        <path class="cls-1" d="m31.44,12.61c-.13,2-.25,4-.38,6-.04.65.6,1.28,1.25,1.25.71-.03,1.21-.55,1.25-1.25.13-2,.25-4,.38-6,.04-.65-.6-1.28-1.25-1.25-.71.03-1.21.55-1.25,1.25h0Z"/>
        <path class="cls-1" d="m26.06,12.6c-.12,2-.24,4-.37,6-.04.65.6,1.28,1.25,1.25.71-.03,1.21-.55,1.25-1.25.12-2,.24-4,.37-6,.04-.65-.6-1.28-1.25-1.25-.71.03-1.21.55-1.25,1.25h0Z"/>
        <path class="cls-1" d="m21.63,12.61v4.88c0,.65.57,1.28,1.25,1.25s1.25-.55,1.25-1.25v-4.88c0-.65-.57-1.28-1.25-1.25s-1.25.55-1.25,1.25h0Z"/>
        <path class="cls-1" d="m16.44,13.03c-.37,2.5-.74,5-1.1,7.51-.09.64.16,1.38.87,1.54.59.14,1.44-.18,1.54-.87.37-2.5.74-5,1.1-7.51.09-.64-.16-1.38-.87-1.54-.59-.14-1.44.18-1.54.87h0Z"/>
        <path class="cls-1" d="m9.05,26.57c1.96.38,3.96.53,5.96.42.65-.04,1.28-.55,1.25-1.25-.03-.65-.55-1.29-1.25-1.25-.92.05-1.85.05-2.77,0-.45-.03-.9-.07-1.35-.13-.36-.04.26.04-.1-.01-.11-.02-.22-.03-.32-.05-.25-.04-.5-.09-.75-.13-.64-.12-1.38.18-1.54.87-.14.62.19,1.41.87,1.54h0Z"/>
        <path class="cls-1" d="m8.26,34.49c.45-.04.91-.05,1.36-.04.19,0,.39.02.58.03.13,0,.26.02.39.04h.1c.14.03.13.03-.04,0,.18-.03.45.07.62.1.21.04.41.09.62.14.44.11.88.24,1.3.4.62.22,1.4-.25,1.54-.87.16-.71-.21-1.3-.87-1.54-1.77-.65-3.71-.91-5.59-.76-.65.05-1.28.54-1.25,1.25.03.63.55,1.31,1.25,1.25h0Z"/>
        <path class="cls-1" d="m10.74,41.41c.1-.05.2-.1.31-.15.27-.12-.26.1.02,0,.19-.07.37-.14.56-.2s.38-.11.58-.15c.1-.02.19-.04.29-.06.06-.01.25-.07.29-.05-.19.03-.22.03-.08.01h.08c.11-.02.23-.03.34-.04.2-.01.4-.01.6,0s.4.02.59.04h.08c.14.03.11.02-.08,0,.04-.03.29.05.34.06.64.12,1.38-.18,1.54-.87.14-.62-.19-1.41-.87-1.54-2.01-.38-4.02-.11-5.85.8-.59.29-.8,1.17-.45,1.71.39.6,1.08.76,1.71.45h0Z"/>
        <path class="cls-1" d="m9.78,46.88c1.31.46,2.7.52,4.06.29.29-.05.6-.33.75-.57.16-.27.22-.66.13-.96s-.29-.59-.57-.75c-.31-.17-.61-.19-.96-.13-.1.02-.2.03-.3.05l.33-.04c-.57.07-1.15.07-1.72,0l.33.04c-.47-.06-.93-.17-1.37-.33-.29-.1-.7-.03-.96.13s-.51.45-.57.75c-.16.7.21,1.3.87,1.54h0Z"/>
        <path class="cls-1" d="m10.14,53.19l3.37.41c.3.04.68-.17.88-.37.22-.22.38-.57.37-.88s-.12-.66-.37-.88l-.25-.2c-.19-.11-.41-.17-.63-.17l-3.37-.41c-.3-.04-.68.17-.88.37-.22.22-.38.57-.37.88s.12.66.37.88l.25.2c.19.11.41.17.63.17h0Z"/>
        <path class="cls-1" d="m10.74,59.04c.09-.05.19-.09.29-.13l-.3.13c.31-.13.64-.21.97-.26l-.33.04c.36-.04.71-.04,1.07,0l-.33-.04c.33.05.66.14.97.27l-.3-.13c.15.06.29.13.42.21.06.04.13.08.19.12.08.05.33.24,0-.01.27.21.52.37.88.37.31,0,.67-.14.88-.37s.38-.55.37-.88c-.01-.31-.11-.69-.37-.88-.46-.36-.9-.62-1.45-.84-.46-.19-.94-.27-1.43-.32-.96-.1-1.95.13-2.8.57-.58.3-.8,1.16-.45,1.71.38.59,1.09.77,1.71.45h0Z"/>
        <path class="cls-1" d="m10.13,65.62c1,0,2,0,3,0,.32,0,.66-.14.88-.37s.38-.57.37-.88c-.03-.68-.55-1.25-1.25-1.25-1,0-2,0-3,0-.32,0-.66.14-.88.37s-.38.57-.37.88c.03.68.55,1.25,1.25,1.25h0Z"/>
        <path class="cls-1" d="m10.88,72.75h2.63c.32,0,.66-.14.88-.37s.38-.57.37-.88c-.03-.68-.55-1.25-1.25-1.25h-2.63c-.32,0-.66.14-.88.37s-.38.57-.37.88c.03.68.55,1.25,1.25,1.25h0Z"/>
        <path class="cls-1" d="m11.2,78.67c1-.25,2-.5,3-.75.63-.16,1.08-.91.87-1.54s-.86-1.04-1.54-.87c-1,.25-2,.5-3,.75-.63.16-1.08.91-.87,1.54s.86,1.04,1.54.87h0Z"/>
        <path class="cls-1" d="m11.58,85.43l2.63-.38c.29-.04.61-.34.75-.57.16-.27.22-.66.13-.96s-.29-.59-.57-.75l-.3-.13c-.22-.06-.44-.06-.66,0l-2.63.38c-.29.04-.61.34-.75.57-.16.27-.22.66-.13.96s.29.59.57.75l.3.13c.22.06.44.06.66,0h0Z"/>
        <path class="cls-1" d="m10.78,90.6c.26-.2.53-.38.81-.55.13-.08.26-.15.4-.22.07-.03.14-.07.2-.1.05-.02.09-.04.14-.06-.17.07-.21.09-.12.05.6-.24,1.22-.41,1.86-.49l-.33.04c.3-.04.6-.06.9-.06.65,0,1.28-.57,1.25-1.25s-.55-1.26-1.25-1.25c-1.82.02-3.67.61-5.12,1.72-.27.21-.48.4-.57.75-.08.3-.05.7.13.96s.43.5.75.57.7.07.96-.13h0Z"/>
        <path class="cls-1" d="m10.46,95.59l1.5-.38c.16-.04.3-.11.43-.22.14-.09.24-.21.32-.35.09-.14.14-.3.15-.46.04-.17.03-.33-.02-.5-.1-.3-.29-.59-.57-.75s-.63-.21-.96-.13l-1.5.38c-.16.04-.3.11-.43.22-.14.09-.24.21-.32.35-.09.14-.14.3-.15.46-.04.17-.03.33.02.5.1.3.29.59.57.75s.63.21.96.13h0Z"/>
      </g>
      <g>
        <path class="cls-2" d="m38.31,40.37c.07-.05.18.06.24.1.09.07.18.13.29.17.24.09.5.05.73-.02.38-.11.96-.49,1.33-.19.17.13.41-.1.24-.24-.48-.38-1.03-.11-1.53.06-.26.09-.55.16-.79,0-.19-.13-.44-.35-.68-.17-.17.13,0,.42.17.29h0Z"/>
        <path class="cls-2" d="m41.05,34.77c-.88-.04-1.03,1.21-.97,1.84.1.94.57,1.8,1.05,2.61.11.19.4.02.29-.17-.39-.67-.78-1.36-.95-2.13-.08-.37-.1-.75-.02-1.11.06-.29.23-.71.59-.7.22,0,.22-.33,0-.34h0Z"/>
        <path class="cls-2" d="m41.44,36.59c.55.2,1.12.41,1.72.4.5-.01,1.01-.19,1.35-.57.15-.16-.09-.4-.24-.24-.72.8-1.89.39-2.74.08-.2-.08-.29.25-.09.33h0Z"/>
        <path class="cls-2" d="m41.3,35.77c.99-.58,2.26-.61,3.27-.06.19.1.36-.19.17-.29-1.12-.6-2.51-.58-3.61.06-.19.11-.02.4.17.29h0Z"/>
        <path class="cls-2" d="m36.22,35.78c.66-.29,1.41-.33,2.1-.13.21.06.3-.27.09-.33-.78-.23-1.62-.16-2.37.17-.08.04-.1.16-.06.23.05.09.15.1.23.06h0Z"/>
        <path class="cls-2" d="m36.47,36.15c.55.31,1.19.46,1.82.43.22-.01.22-.35,0-.34-.58.03-1.15-.1-1.65-.38-.19-.11-.36.19-.17.29h0Z"/>
        <path class="cls-2" d="m35.94,29.77c-.67.65-1.07,1.52-1.03,2.46.03.58.27,1.11.39,1.67.16.73.05,1.43-.06,2.16-.3,2.06-.07,4.06.87,5.94.86,1.7,2.44,3.64,4.42,3.95s4.49-.55,5.71-2.09c.13-.17-.1-.41-.24-.24-1.18,1.49-3.95,2.46-5.79,1.91s-3.31-2.52-4.04-4.24c-.78-1.83-.81-3.64-.53-5.57.13-.88.08-1.62-.16-2.47-.35-1.22-.25-2.33.71-3.25.16-.15-.08-.39-.24-.24h0Z"/>
        <path class="cls-2" d="m35.94,29.87c1.94-.92,4.14-1.27,6.26-.89s3.48,2.49,3.73,4.54c.11.86.48,1.61.76,2.42.31.88.49,1.81.52,2.74.07,1.97-.45,3.9-1.51,5.56-.12.18.18.36.29.17,1.12-1.78,1.67-3.87,1.54-5.98-.07-1.01-.29-2-.66-2.94-.19-.49-.41-.97-.53-1.48-.15-.62-.1-1.26-.33-1.86-.66-1.74-2-3.21-3.86-3.51-2.18-.36-4.4,0-6.39.95-.2.09-.03.39.17.29h0Z"/>
        <path class="cls-2" d="m40.7,45.97c.22,0,.22-.34,0-.34s-.22.34,0,.34h0Z"/>
        <path class="cls-2" d="m40.23,45.75c-.41.4-.34,1.02-.14,1.51.21.54.75,1.19.49,1.8-.09.2.21.37.29.17.26-.6-.03-1.2-.31-1.75-.22-.43-.5-1.09-.09-1.49.16-.15-.08-.39-.24-.24h0Z"/>
        <path class="cls-2" d="m36.7,51.62c1.14-1.03,2.43-1.86,3.83-2.48.2-.09.03-.38-.17-.29-1.43.63-2.74,1.49-3.9,2.53-.16.15.08.39.24.24h0Z"/>
        <path class="cls-2" d="m36.45,51.5l-1.79,3.52c-.34.67-1.1,1.67-.71,2.46.59,1.24,2.72,1.84,3.75.88l-.28-.16c-.24.66.26,1.11.84,1.3.95.3,2.03.45,3.02.52s1.94-.01,2.83-.39c1-.43,1.76-1.26,2.74-1.75.77-.39,1.05-.84,1.15-1.69.15-1.26.25-2.53.35-3.8s-.06-2.24-.37-3.43c-.29-1.1-.5-2.25-.99-3.29-.09-.2-.39-.03-.29.17.41.86.59,1.8.83,2.72.25.96.56,1.91.54,2.91-.02.9-.12,1.8-.2,2.7s.04,2.32-.58,3c-.27.3-.63.41-.97.61s-.63.41-.93.64c-.7.54-1.4.99-2.28,1.17-.73.15-5.87.11-5.36-1.3.06-.17-.17-.27-.28-.16-.62.58-1.49.43-2.19.07-.26-.13-.58-.31-.77-.54-.49-.61-.23-1.09.07-1.7.71-1.43,1.45-2.85,2.18-4.27.1-.19-.19-.37-.29-.17h0Z"/>
        <path class="cls-2" d="m46.9,45.58s-.08-.05-.12-.08c0,0-.02-.01-.03-.02-.03-.02.01,0,0,0-.02-.02-.04-.03-.06-.05-.07-.06-.14-.13-.2-.2-.02-.02-.03-.04-.04-.05,0,0-.01-.02-.02-.03.02.03,0,0,0,0-.03-.04-.06-.08-.08-.12-.05-.08-.1-.17-.14-.26-.04-.08-.16-.11-.23-.06-.08.05-.1.14-.06.23.17.39.47.71.83.94.08.05.19.02.23-.06s.02-.18-.06-.23h0Z"/>
        <path class="cls-2" d="m39.41,28.14c.22,0,.22-.34,0-.34s-.22.34,0,.34h0Z"/>
        <path class="cls-2" d="m39.46,28.14c.32-.73.48-1.52.48-2.32,0-.22-.34-.22-.34,0,0,.74-.14,1.47-.44,2.15-.04.08-.02.18.06.23.07.04.2.02.23-.06h0Z"/>
        <path class="cls-2" d="m39.95,25.76c3.06-1.23,6.57-.65,8.89,1.75s2.53,5.8,3.17,8.84c.31,1.5.65,3,.94,4.5s.36,3.16.58,4.74c.36,2.68,2.17,5.13,3.46,7.44.11.19.4.02.29-.17-.85-1.53-1.77-3.05-2.54-4.62-.88-1.78-.88-3.53-1.12-5.44-.41-3.27-1.26-6.51-1.94-9.72-.57-2.71-1.42-5.14-3.77-6.81s-5.39-1.9-8.04-.83c-.2.08-.11.41.09.33h0Z"/>
        <path class="cls-2" d="m36.96,72.85c.26-4.32,3.21-7.33,5.87-10.46,2.43-2.86,5.11-6.36,8.91-7.37,1.98-.53,4.48-.93,6.4-.03,1.63.76,3.46,1.91,4.56,3.34,1.23,1.61,1.86,3.76,2.44,5.68s1,3.93,1.27,5.94c.03.22.36.12.33-.09-.34-2.48-.89-4.91-1.71-7.28-.61-1.77-1.27-3.74-2.61-5.1-1.19-1.21-2.95-2.35-4.53-2.97-1.79-.7-3.99-.34-5.82.07-4.1.92-6.9,4.52-9.48,7.56-2.73,3.21-5.7,6.27-5.97,10.7-.01.22.33.22.34,0h0Z"/>
        <path class="cls-2" d="m38.84,25.75c-1.72,1.33-3,3.03-4.18,4.84-.55.86-1.18,1.73-1.52,2.7-.42,1.21.05,2.37-.7,3.47-.83,1.23-1.33,2.95-.67,4.38h.02c.25.21.44.46.55.79.08.21.05.66.08.86.05.45.13.89.22,1.34.27,1.41.67,2.8.8,4.23.24,2.59-.78,4.52-2.61,6.27-1.31,1.24-2.81,2.36-3.75,3.93-1.1,1.85-.89,3.93-.77,5.99.07,1.21.11,2.45-.26,3.63-.43,1.36-1.36,2.46-2.09,3.66-1.01,1.67-1.66,3.76-.35,5.45,1.53,1.97,4.19,2.06,6.46,1.92.22-.01.22-.35,0-.34-2.39.15-5.68,0-6.67-2.66s1.61-4.91,2.64-7.11c.8-1.72.66-3.54.55-5.38-.15-2.37.08-4.41,1.71-6.24,2.16-2.43,5.25-4.08,5.49-7.66.14-2.11-.57-4.16-.93-6.21-.13-.74-.02-1.62-.36-2.3-.3-.6-.35.26-.63-.9-.13-.55-.05-1.37.06-1.91.21-1.01,1.11-1.62,1.31-2.6.09-.46-.02-.93,0-1.4.03-.79.34-1.5.72-2.18,1.29-2.32,2.92-4.65,5.03-6.28.17-.13,0-.43-.17-.29h0Z"/>
        <path class="cls-2" d="m31.26,69.19c.22,1.08.84,2.07.72,3.21-.04.42-.14.85-.03,1.27s.39.48.67.75c.68.68-.21,1.24-.64,1.72-.29.33-.52.7-.68,1.1-.34.83-.37,1.74-.12,2.6.06.21.39.12.33-.09-.32-1.07-.14-2.24.53-3.15.44-.59,1.5-1.21,1.12-2.09-.17-.38-.63-.44-.82-.79-.24-.44-.01-1.09,0-1.56.05-1.07-.55-2.04-.76-3.07-.04-.21-.37-.12-.33.09h0Z"/>
        <path class="cls-2" d="m31.66,69.65c.22,0,.22-.34,0-.34s-.22.34,0,.34h0Z"/>
        <path class="cls-2" d="m30.28,79.33c.57.27,1.17.4,1.72.74.5.31.96.68,1.39,1.08.84.77,1.56,1.65,2.34,2.48,1.39,1.48,3.02,2.85,5.13,2.98.17.01.23-.24.09-.32-1.22-.65-2.31-1.46-3.3-2.42l-.16.28c2.02.67,3.61,2.4,5.83,2.44.1,0,.2-.11.16-.21-.69-1.88-2.87-2.38-3.92-3.98l-.23.23c1.92,1.4,3.96,2.6,6.13,3.58.13.06.28-.04.25-.19-.58-2.55-4.06-3.11-4.48-5.7l-.25.19c1.26.78,2.54,1.51,3.85,2.19.45.23,1.5.99,1.99.41.6-.69-.7-1.67-1.11-2.02-.94-.81-1.99-1.47-3.13-1.99-.2-.09-.37.2-.17.29.74.34,1.46.38,2.22.06.14-.06.18-.28,0-.33-2.27-.62-4.09-1.81-6.07-3.02-1.77-1.08-3.68-1.66-5.77-1.53-.22.01-.22.35,0,.34,2.37-.14,4.36.68,6.31,1.94,1.73,1.11,3.44,2.05,5.43,2.6v-.33c-.66.27-1.3.28-1.95-.03l-.17.29c.73.33,1.43.72,2.09,1.18.37.26.73.54,1.08.85.14.12.28.25.41.38.19.18,1.05.95-.15,1.03-.28.02-.88-.44-1.13-.58-.37-.2-.75-.4-1.11-.6-.83-.46-1.65-.95-2.46-1.45-.14-.09-.27.05-.25.19.43,2.63,3.9,3.16,4.48,5.7l.25-.19c-2.16-.98-4.21-2.18-6.13-3.58-.14-.1-.32.1-.23.23,1.02,1.56,3.22,2.09,3.88,3.9l.16-.21c-2.16-.05-3.77-1.78-5.74-2.43-.16-.05-.28.17-.16.28,1.01.98,2.13,1.81,3.37,2.47l.09-.32c-3.22-.21-5.01-3.28-7.13-5.28-.88-.83-1.92-1.61-3.1-1.91-.22-.06-.52-.13-.66.11-.1.17-.03.34.14.42.2.09.37-.2.17-.29h0Z"/>
        <path class="cls-2" d="m32.85,80.53c-1.64.17-3.65.46-4.43,2.15-.36.79-.21,1.66.1,2.44.22.55.54,1.62,1.31,1.49.09-.01.14-.13.12-.21-.38-1.2.28-2.58,1.48-3l-.16-.28c-1.15.97-1.75,2.76-1.15,4.2.2.48.71.5.89,0,.13-.38.09-.81.2-1.2.15-.53.43-1.01.81-1.42l-.27-.21c-.5,1.06-.89,2.22-.84,3.41.03.55.28,2.39,1.23,1.9.4-.21.45-.66.48-1.06.04-.63.26-1.14.73-1.57,1.05-.96,2.56-.92,3.89-.88.22,0,.22-.33,0-.34-1.71-.05-3.97.02-4.77,1.86-.19.43-.12.86-.23,1.3-.08.34-.5.39-.7.1-.08-.11-.11-.27-.15-.4-.08-.27-.13-.55-.15-.84-.07-1.15.3-2.29.79-3.32.08-.16-.13-.36-.27-.21-.41.45-.72.98-.89,1.57-.09.3-.11.59-.15.9,0,.08-.02.37-.1.4-.22.07-.28-.33-.31-.44-.31-1.29.18-2.66,1.18-3.51.13-.11,0-.34-.16-.28-1.36.48-2.16,2.03-1.72,3.42l.12-.21c-.37.06-.59-.58-.71-.84-.17-.36-.33-.73-.41-1.12-.16-.73-.05-1.43.42-2.01.92-1.13,2.45-1.31,3.81-1.45.21-.02.22-.36,0-.34h0Z"/>
        <path class="cls-2" d="m44.54,79.79c.7.56,1.6.35,2.4.13,1.21-.33,2.43-.66,3.64-.99.7-.19,2.19-.3,1.8-1.39-.16-.45-.58-.82-.88-1.18-.41-.49-.82-.97-1.23-1.46-.14-.17-.38.07-.24.24.59.7,1.21,1.39,1.78,2.11.14.18.39.51.27.75-.14.27-.54.32-.81.39-.45.12-.9.25-1.36.37-.9.25-1.81.49-2.71.74-.74.2-1.75.6-2.43.05-.17-.13-.41.1-.24.24h0Z"/>
        <path class="cls-2" d="m45.37,79.14c1.64-1.23,3.29-2.47,4.93-3.7.17-.13,0-.42-.17-.29-1.64,1.23-3.29,2.47-4.93,3.7-.17.13,0,.42.17.29h0Z"/>
        <path class="cls-2" d="m43.46,86.64c4.05.21,8.12-1.37,11.96-2.48,3.28-.95,6.57-2.09,9.09-4.49.16-.15-.08-.39-.24-.24-2.57,2.43-5.94,3.54-9.27,4.49-3.71,1.07-7.63,2.58-11.54,2.38-.22-.01-.22.33,0,.34h0Z"/>
        <path class="cls-2" d="m38.31,42.06c.61-.14,1.23.03,1.84.05.51.02,1.03-.07,1.43-.41.17-.14-.07-.38-.24-.24-.39.32-.92.33-1.4.3-.58-.05-1.15-.16-1.73-.02-.21.05-.12.38.09.33h0Z"/>
        <path class="cls-2" d="m38.82,42.45c.33.52.99.78,1.59.61.21-.06.12-.39-.09-.33-.44.12-.95-.06-1.2-.45-.05-.08-.15-.11-.23-.06-.08.04-.11.15-.06.23h0Z"/>
      </g>
      <path class="cls-2" d="m39.83,76.8c-.78-3.07,2.41-5.59,4.39-7.46,2.1-1.99,4.39-3.9,7.12-4.94.88-.34,1.9-.73,2.76-.11.52.37.95.92,1.38,1.39.86.92,1.7,1.85,2.59,2.73,1.65,1.63,3.45,3.06,5.63,3.91.18.07.25-.21.08-.28-3.03-1.18-5.28-3.54-7.45-5.88-.72-.78-1.59-2.15-2.67-2.46s-2.52.42-3.5.89c-2.73,1.31-5,3.4-7.15,5.5-1.81,1.77-4.18,3.99-3.47,6.79.05.18.33.11.28-.08h0Z"/>
    </g>
  </g>
</svg>