<?xml version="1.0" encoding="UTF-8"?>
<svg id="Capa_2" data-name="Capa 2" xmlns="http://www.w3.org/2000/svg" viewBox="0 0 315.75 369.73">
  <defs>
    <style>
      .cls-1 {
        fill: #dd3131;
        stroke-width: 0px;
      }
    </style>
  </defs>
  <g id="Capa_1-2" data-name="Capa 1">
    <g>
      <path class="cls-1" d="m37.46.05C27.4,1.84,17.2,2.8,6.98,2.85c-2.34.01-6.03.24-6.84,2.99-.27.92-.07,2.05,0,2.99.09,1.32.18,2.65.27,3.97.36,5.21.72,10.42,1.07,15.63.41,5.95.82,11.91,1.23,17.86.12,1.73,5.94.56,5.8-1.55-.66-9.59-1.32-19.19-1.98-28.78-.16-2.4-.33-4.8-.49-7.2-.07-.99.04-2.26-.19-3.22-.04-.16.11-.33.08-.48l-2.22.91h.49c.64.06,1.32,0,1.96-.02,4.82-.06,9.64-.32,14.44-.75,5.37-.48,10.72-1.2,16.03-2.14,1-.18,3.08-.66,3.31-1.9s-1.74-1.25-2.47-1.13h0Z"/>
      <path class="cls-1" d="m261.99,364.07c15.84,2.57,31.79,4.46,47.8,5.65,1.35.1,3.73-.58,3.97-2.22,1.88-12.88,2.41-25.89,1.69-38.89-.08-1.37-2.54-1.26-3.38-1.03-1.26.34-2.49,1.18-2.41,2.59.7,12.64.09,25.34-1.74,37.87l3.97-2.22c-16.01-1.19-31.96-3.08-47.8-5.65-1.3-.21-3.17.5-3.79,1.71-.68,1.32.6,2.02,1.7,2.2h0Z"/>
    </g>
  </g>
</svg>