<?xml version="1.0" encoding="UTF-8"?>
<svg id="Capa_2" data-name="Capa 2" xmlns="http://www.w3.org/2000/svg" viewBox="0 0 314.7 370.22">
  <defs>
    <style>
      .cls-1 {
        fill: #07ff00;
        stroke-width: 0px;
      }
    </style>
  </defs>
  <g id="Capa_1-2" data-name="Capa 1">
    <g>
      <path class="cls-1" d="m35.64.04C25.61,1.82,15.45,2.78,5.27,2.85c-2.25.01-4.76.08-5.2,2.83-.17,1.07.03,2.25.1,3.31.09,1.32.18,2.65.27,3.97.35,5.13.7,10.26,1.06,15.38.4,5.87.81,11.74,1.21,17.62.17,2.54,4.97,3.23,4.76.25-.66-9.68-1.33-19.35-1.99-29.03-.16-2.4-.33-4.8-.49-7.2-.04-.58-.08-1.16-.12-1.74,0-.14.06-1.13-.04-1.23v-.06c.03-.17-.06-.12-.28.15.09,0,.29,0,.33,0,.51.17,1.41,0,1.96-.01,4.86-.06,9.71-.31,14.55-.74,5.37-.48,10.72-1.2,16.03-2.14,1.19-.21,1.8-1.41,1.34-2.51-.49-1.16-1.89-1.89-3.12-1.67h0Z"/>
      <path class="cls-1" d="m263.02,364.56c15.84,2.57,31.79,4.46,47.8,5.65.87.06,1.74-.34,1.88-1.26,1.85-12.7,2.42-25.56,1.71-38.38-.07-1.23-1.11-2.12-2.25-2.41-.81-.21-2.56-.07-2.49,1.16.71,12.82.14,25.68-1.71,38.38l1.88-1.26c-16.01-1.19-31.96-3.08-47.8-5.65-1.05-.17-2.07.66-1.83,1.74.29,1.26,1.7,1.85,2.82,2.03h0Z"/>
    </g>
  </g>
</svg>